<?xml version="1.0" encoding="utf-8"?>
<!-- Generator: Adobe Illustrator 23.0.4, SVG Export Plug-In . SVG Version: 6.00 Build 0)  -->
<svg version="1.1" id="Layer_1" xmlns="http://www.w3.org/2000/svg" xmlns:xlink="http://www.w3.org/1999/xlink" x="0px" y="0px"
	 viewBox="0 0 95.8 95.8" style="enable-background:new 0 0 95.8 95.8;" xml:space="preserve">
<style type="text/css">
	.st0{fill:#E44D26;}
	.st1{fill:#F16529;}
	.st2{fill:#EBEBEB;}
	.st3{fill:#FFFFFF;}
</style>
<title>HTML5 Logo</title>
<path d="M20.3,0h4.3v4.3h4V0h4.3v12.9h-4.3V8.6h-3.9v4.3h-4.3 M38.5,4.3h-3.8V0h11.9v4.3h-3.8v8.6h-4.3 M48.5,0H53l2.8,4.5L58.6,0
	h4.5v12.9h-4.3V6.5l-3,4.6l-3-4.6v6.4h-4.2 M65.2,0h4.3v8.6h6.1v4.3H65.2"/>
<path class="st0" d="M20.1,88.1L14,18.8h67.9l-6.2,69.2l-27.8,7.7"/>
<path class="st1" d="M47.9,89.9V24.5h27.7l-5.3,59.1"/>
<path class="st2" d="M26.6,33h21.3v8.5h-12l0.8,8.7h11.2v8.5h-19 M29.3,62.9h8.5l0.6,6.8l9.5,2.5v8.9l-17.4-4.9"/>
<path class="st3" d="M69.1,33H47.8v8.5h20.5 M67.6,50.2H47.8v8.5h10.5l-1,11l-9.5,2.5v8.8l17.4-4.8"/>
</svg>
