<?xml version="1.0" encoding="utf-8"?>
<!-- Generator: Adobe Illustrator 23.0.4, SVG Export Plug-In . SVG Version: 6.00 Build 0)  -->
<svg version="1.1" id="Layer_1" xmlns="http://www.w3.org/2000/svg" xmlns:xlink="http://www.w3.org/1999/xlink" x="0px" y="0px"
	 viewBox="0 0 96 95.8" style="enable-background:new 0 0 96 95.8;" xml:space="preserve">
<style type="text/css">
	.st0{fill:#FF7C00;}
	.st1{fill:#261300;}
	.st2{fill:#FFFFFF;}
</style>
<title>Illustrator_1</title>
<g>
	<g id="Layer_1-2">
		<path class="st0" d="M17.6,1.1h60.8C88.1,1.1,96,9,96,18.7v58.4c0,9.7-7.9,17.6-17.6,17.6H17.6C7.9,94.7,0,86.8,0,77.1V18.7
			C0,9,7.9,1.1,17.6,1.1z"/>
		<path class="st1" d="M18.4,5.1h59.2c8,0,14.4,6.4,14.4,14.4v56.8c0,8-6.4,14.4-14.4,14.4H18.4c-8,0-14.4-6.4-14.4-14.4V19.5
			C4,11.5,10.4,5.1,18.4,5.1z"/>
		<path class="st2" d="M33.3,54.8l-3.2,12c0,0.3-0.2,0.5-0.6,0.5h-5.9c-0.3,0-0.5-0.2-0.3-0.6l11.4-39.8c0.3-1.1,0.4-2.2,0.3-3.4
			c0-0.3,0.2-0.3,0.3-0.3h8.3c0.3,0,0.3,0,0.5,0.3l12.8,43.2c0,0.3,0,0.5-0.3,0.5h-6.6c-0.3,0-0.5,0-0.6-0.3l-3.4-12L33.3,54.8z
			 M44.5,48.4c-1.1-4.5-3.8-14.1-4.8-18.9l0,0c-0.8,4.6-3,12.6-4.6,18.9H44.5z M62.4,26.2c0-2.3,1.9-4.2,4.2-4.2
			c2.3,0,4.2,1.9,4.2,4.2c0,0,0,0,0,0c0.2,2.1-1.4,4-3.5,4.2c-0.2,0-0.4,0-0.6,0C64.2,30.2,62.4,28.8,62.4,26.2z M62.9,35.3
			c0-0.2,0.1-0.4,0.3-0.5c0,0,0.1,0,0.1,0h6.2c0.2,0,0.4,0.1,0.5,0.3c0,0,0,0.1,0,0.1v31.5c0,0.3,0,0.5-0.5,0.5h-6.2
			c-0.2,0-0.4-0.1-0.5-0.3c0,0,0-0.1,0-0.1V35.3z"/>
	</g>
</g>
</svg>
